<?xml version="1.0" encoding="utf-8"?>
<!-- Generator: Adobe Illustrator 23.0.6, SVG Export Plug-In . SVG Version: 6.00 Build 0)  -->
<svg version="1.1" id="Layer_1" xmlns="http://www.w3.org/2000/svg" xmlns:xlink="http://www.w3.org/1999/xlink" x="0px" y="0px"
	 viewBox="0 0 40 40" style="enable-background:new 0 0 40 40;" xml:space="preserve">
<style type="text/css">
	.st0{fill:#00112C;}
</style>
<g>
	<g>
		<path class="st0" d="M38,40H2c-1.1,0-2-0.9-2-2V26c0-1.1,0.9-2,2-2h36c1.1,0,2,0.9,2,2v12C40,39.1,39.1,40,38,40z M2,26v11
			c0,0.55,0.45,1,1,1h35l0-11c0-0.55-0.45-1-1-1H2z"/>
	</g>
	<g>
		<path class="st0" d="M20,35c-0.26,0-0.51-0.1-0.71-0.29l-2-2c-0.39-0.39-0.39-1.02,0-1.41s1.02-0.39,1.41,0L20,32.59l3.29-3.29
			c0.39-0.39,1.02-0.39,1.41,0s0.39,1.02,0,1.41l-4,4C20.51,34.9,20.26,35,20,35z"/>
	</g>
	<g>
		<path class="st0" d="M38,14H2c-1.1,0-2-0.9-2-2v-2c0-1.1,0.9-2,2-2h36c1.1,0,2,0.9,2,2v2C40,13.1,39.1,14,38,14z M2,10L2,10l0,1
			c0,0.55,0.45,1,1,1h35v-1c0-0.55-0.45-1-1-1H2z"/>
	</g>
	<g>
		<path class="st0" d="M25,22H2c-1.1,0-2-0.9-2-2v-2c0-1.1,0.9-2,2-2h23c1.1,0,2,0.9,2,2v2C27,21.1,26.1,22,25,22z M2,18L2,18l0,1
			c0,0.55,0.45,1,1,1h22v-1c0-0.55-0.45-1-1-1H2z"/>
	</g>
	<g>
		<path class="st0" d="M38,6H2C0.9,6,0,5.1,0,4V2c0-1.1,0.9-2,2-2h36c1.1,0,2,0.9,2,2v2C40,5.1,39.1,6,38,6z M2,2L2,2l0,1
			c0,0.55,0.45,1,1,1h35V3c0-0.55-0.45-1-1-1H2z"/>
	</g>
	<g>
		<path class="st0" d="M38,22h-6c-1.1,0-2-0.9-2-2v-2c0-1.1,0.9-2,2-2h6c1.1,0,2,0.9,2,2v2C40,21.1,39.1,22,38,22z M32,18L32,18l0,1
			c0,0.55,0.45,1,1,1h5v-1c0-0.55-0.45-1-1-1H32z"/>
	</g>
</g>
</svg>
