<?xml version="1.0" encoding="utf-8"?>
<!-- Generator: Adobe Illustrator 19.2.1, SVG Export Plug-In . SVG Version: 6.00 Build 0)  -->
<svg version="1.1" id="layer" xmlns="http://www.w3.org/2000/svg" xmlns:xlink="http://www.w3.org/1999/xlink" x="0px" y="0px"
	 viewBox="0 0 652 652" style="enable-background:new 0 0 652 652;" xml:space="preserve">
<style type="text/css">
	.st0{fill:#1A1918;}
</style>
<g id="Symbols">
	<g id="HeaderGenerico_1366" transform="translate(-30.000000, -18.000000)">
		<g id="Header" transform="translate(0.000000, 16.000000)">
			<g id="Logo_mango" transform="translate(30.000000, 2.000000)">
				<polyline id="Fill-1" class="st0" points="81.7,319.5 90.9,333.7 109.4,305 109.4,368.6 125.3,368.6 125.3,276.2 109.1,276.2 
					81.7,319.5 				"/>
				<polyline id="Fill-2" class="st0" points="37,276.2 20.9,276.2 20.9,368.6 36.9,368.6 36.9,305 73.2,361.5 82.4,347.1 37,276.2 
									"/>
				<polyline id="Fill-3" class="st0" points="221.1,339.9 235.8,368.6 255,368.6 206.8,276.2 189.5,276.2 189.5,276.2 213.6,325.2 
					181.6,325.2 189.9,309.2 181.2,291.9 140.6,368.6 158.6,368.6 173.8,339.9 221.1,339.9 				"/>
				<polyline id="Fill-4" class="st0" points="361.3,276.2 345.4,276.2 345.4,321 361.3,336.6 361.3,276.2 				"/>
				<polyline id="Fill-5" class="st0" points="284.3,276.2 268,276.2 268,368.6 284,368.6 284,299.5 349.5,368.6 361.3,368.6 
					361.3,357.3 284.3,276.2 				"/>
				<path id="Fill-6" class="st0" d="M472.9,301.8c-7.6-7.7-19.3-12.6-32.5-12.6c-21,0-38.3,12.5-41.1,28.8h-17.6
					c2.3-25.3,28.9-43.9,58.9-43.9c17.9,0,33.9,6.5,44.7,16.9L472.9,301.8"/>
				<path id="Fill-7" class="st0" d="M439,355.7c-17.5,0-32.4-9.2-38-22.2H383c5.9,22.3,29.3,37.2,56.9,37.2c6.4,0,13.8-0.6,20-2.1
					c13.9-3.3,29-12.1,29-26V318h-50.2l0,15.5h34.2v7c0,7.8-11.9,12.2-19.2,13.8c-3.9,0.8-9,1.3-13,1.3H439"/>
				<path id="Fill-8" class="st0" d="M620.9,322.5c0-27.6-25.7-48.9-57.3-48.9c-30.6,0-57.4,20.4-57.4,47.5
					c0,25.5,21.1,46,49.5,49.2v-15.4c-18.6-3-32.6-16.5-32.6-32.8c0-18.4,18.1-33.4,40.3-33.4c22.3,0,40.3,15,40.3,33.4
					c0,16.1-13.8,29.6-32.2,32.7v15.5C598.9,366.9,620.9,347.2,620.9,322.5"/>
			</g>
		</g>
	</g>
</g>
</svg>
